<svg xmlns="http://www.w3.org/2000/svg" viewBox="0 0 363.8 29.6"><title>mark_type2_svg</title><g id="レイヤー_2" data-name="レイヤー 2"><g id="レイヤー_1-2" data-name="レイヤー 1"><polygon points="22.2 0 10.9 0 22.2 9.4 22.2 0"/><polygon points="0 29.6 22.2 29.6 22.2 19.3 0 0 0 29.6"/><polygon points="34.2 19.2 22.2 9.4 22.2 19.3 34.2 29.6 34.2 19.2"/><path d="M55.8,3.8l8.7,14.8h.1V3.8h4.3v22H64.3L55.6,11.1h-.1V25.8H51.2V3.8Z"/><path d="M75.8,3.8V21.7H86v4.1H71.2V3.8Z"/><path d="M97.6,3.8a8.6,8.6,0,0,1,3.4.6A6,6,0,0,1,103.2,6a6.1,6.1,0,0,1,1.3,2.2,11.7,11.7,0,0,1,.4,2.6,12.6,12.6,0,0,1-.4,2.7,6.1,6.1,0,0,1-1.3,2.2,6,6,0,0,1-2.2,1.6,8.6,8.6,0,0,1-3.4.6H92.8v7.9H88.2V3.8ZM96.4,14.2l1.5-.2,1.3-.4a2.4,2.4,0,0,0,.9-1.1,4,4,0,0,0,.3-1.7,4.3,4.3,0,0,0-.3-1.7,2.8,2.8,0,0,0-.9-1l-1.3-.4-1.5-.2H92.8v6.7Z"/><path d="M115.3,3.8l7.8,22h-4.8l-1.6-4.9h-7.8l-1.6,4.9h-4.7l7.9-22Zm.2,13.5-2.6-8.1h-.1l-2.7,8.1Z"/><path d="M134.4,3.8a8.1,8.1,0,0,1,3.3.6A6.3,6.3,0,0,1,140,6a7.4,7.4,0,0,1,1.6,4.8,8.4,8.4,0,0,1-.4,2.7,7.8,7.8,0,0,1-1.2,2.2,6.3,6.3,0,0,1-2.3,1.6,8.1,8.1,0,0,1-3.3.6h-4.9v7.9h-4.6V3.8Zm-1.3,10.4,1.5-.2,1.3-.4a2.4,2.4,0,0,0,.9-1.1,3.9,3.9,0,0,0,.4-1.7,4.3,4.3,0,0,0-.4-1.7,2.8,2.8,0,0,0-.9-1l-1.3-.4-1.5-.2h-3.6v6.7Z"/><path d="M159,3.8V7.9H147.9v4.7h10.2v3.7H147.9v5.4h11.3v4.1H143.3V3.8Z"/><path d="M173,3.8a5.5,5.5,0,0,1,2.6.5,5,5,0,0,1,1.9,1.3,6.2,6.2,0,0,1,1.2,1.9,6,6,0,0,1,.5,2.4,6.7,6.7,0,0,1-.8,3.3,4.8,4.8,0,0,1-2.6,2.2h0a5.3,5.3,0,0,1,1.5.8,6.2,6.2,0,0,1,.9,1.2,8.8,8.8,0,0,1,.5,1.5,11.1,11.1,0,0,1,.2,1.7,4.9,4.9,0,0,0,.1,1.2,7.6,7.6,0,0,0,.1,1.5,5.9,5.9,0,0,0,.2,1.4,3.7,3.7,0,0,0,.5,1.1h-4.6a8.5,8.5,0,0,1-.5-2.5,26.6,26.6,0,0,0-.3-2.8,4.1,4.1,0,0,0-1-2.5,3.4,3.4,0,0,0-2.5-.8h-4.6v8.6h-4.6V3.8Zm-1.6,10a3.6,3.6,0,0,0,2.4-.8,3.3,3.3,0,0,0,.8-2.4,3,3,0,0,0-.8-2.3,3.6,3.6,0,0,0-2.4-.8h-5.1v6.3Z"/><path d="M188.5,20.2v5.7H183V20.2Z"/><path d="M205.1,9.7A6.9,6.9,0,0,0,204,8.4a4.7,4.7,0,0,0-1.4-.8,4.1,4.1,0,0,0-1.6-.3,4.4,4.4,0,0,0-2.6.7,4.8,4.8,0,0,0-1.8,1.7,8.7,8.7,0,0,0-1,2.4,12.7,12.7,0,0,0-.3,2.8,12.4,12.4,0,0,0,.3,2.7,8.7,8.7,0,0,0,1,2.4,5.5,5.5,0,0,0,1.8,1.6,4.4,4.4,0,0,0,2.6.7,4.2,4.2,0,0,0,3.3-1.4,6.6,6.6,0,0,0,1.5-3.6h4.4a11.2,11.2,0,0,1-.9,3.8,9.2,9.2,0,0,1-1.9,2.8,8.4,8.4,0,0,1-2.8,1.8,10.5,10.5,0,0,1-3.6.6,10,10,0,0,1-4.3-.9,8.8,8.8,0,0,1-3.3-2.4,12.5,12.5,0,0,1-2-3.6,16.3,16.3,0,0,1-.7-4.5,16.4,16.4,0,0,1,.7-4.6,14.6,14.6,0,0,1,2-3.7,10.3,10.3,0,0,1,3.3-2.5,11.8,11.8,0,0,1,4.3-.8,8.8,8.8,0,0,1,3.3.5A7.2,7.2,0,0,1,207,5.3a8.5,8.5,0,0,1,2.1,2.5,11.3,11.3,0,0,1,1,3.4h-4.5A5.3,5.3,0,0,0,205.1,9.7Z"/><path d="M216.8,3.8v8.4h8.5V3.8h4.6v22h-4.6V16.3h-8.5v9.5h-4.6V3.8Z"/><path d="M243.8,3.8l7.8,22h-4.8l-1.5-4.9h-7.9l-1.6,4.9h-4.7l8-22Zm.2,13.5-2.6-8.1h0l-2.8,8.1Z"/><path d="M257.5,3.8V21.7h10.2v4.1H252.9V3.8Z"/><path d="M274.9,3.8V21.7h10.2v4.1H270.2V3.8Z"/><path d="M303.3,3.8V7.9H292.2v4.7h10.2v3.7H292.2v5.4h11.3v4.1H287.6V3.8Z"/><path d="M310.6,3.8l8.8,14.8h0V3.8h4.4v22h-4.7l-8.7-14.7h0V25.8h-4.3V3.8Z"/><path d="M339,25.7a8,8,0,0,1-3,.6,10,10,0,0,1-4.3-.9,8.8,8.8,0,0,1-3.3-2.4,12.5,12.5,0,0,1-2-3.6,16.3,16.3,0,0,1-.7-4.5,16.4,16.4,0,0,1,.7-4.6,14.6,14.6,0,0,1,2-3.7,10.3,10.3,0,0,1,3.3-2.5,11.8,11.8,0,0,1,4.3-.8,8.1,8.1,0,0,1,3.1.5,7.6,7.6,0,0,1,2.8,1.5,6.8,6.8,0,0,1,2,2.4,9,9,0,0,1,.9,3.3h-4.4a4.5,4.5,0,0,0-1.5-2.7,4.3,4.3,0,0,0-2.9-1,4.4,4.4,0,0,0-2.6.7,4.8,4.8,0,0,0-1.8,1.7,8.7,8.7,0,0,0-1,2.4,12.7,12.7,0,0,0-.3,2.8,12.4,12.4,0,0,0,.3,2.7,8.7,8.7,0,0,0,1,2.4,5.5,5.5,0,0,0,1.8,1.6,4.4,4.4,0,0,0,2.6.7,5.2,5.2,0,0,0,3.6-1.2,5.6,5.6,0,0,0,1.4-3.6h-4.6V13.9h8.8V25.8h-3l-.4-2.5A8.8,8.8,0,0,1,339,25.7Z"/><path d="M363.6,3.8V7.9h-11v4.7h10.1v3.7H352.6v5.4h11.2v4.1H347.9V3.8Z"/></g></g></svg>