<svg xmlns="http://www.w3.org/2000/svg" width="324.7" height="204.2" viewBox="0 0 324.7 204.2">
  <title>mark_type_svg</title>
  <g>
    <g>
      <polygon points="191.6 0 137.6 0 191.6 44.4 191.6 0"/>
      <polygon points="86 140.6 191.6 140.6 191.6 91.4 86 0 86 140.6"/>
      <polygon points="248.3 91.1 191.6 44.4 191.6 91.4 248.3 140.6 248.3 91.1"/>
    </g>
    <g>
      <path d="M4.8,180.8l9,15.3h.1V180.8h4.5v22.9H13.6L4.5,188.3h0v15.4H0V180.8Z"/>
      <path d="M25.5,180.8v18.6H36.1v4.3H20.7V180.8Z"/>
      <path d="M48.2,180.8a8.8,8.8,0,0,1,3.5.6A6.7,6.7,0,0,1,54,183a7.2,7.2,0,0,1,1.4,2.4,9.3,9.3,0,0,1,0,5.4,7.2,7.2,0,0,1-1.4,2.4,5.6,5.6,0,0,1-2.3,1.6,8.7,8.7,0,0,1-3.5.7h-5v8.2H38.4V180.8Zm-1.3,10.7h1.6a3.4,3.4,0,0,0,1.4-.5,4.5,4.5,0,0,0,.9-1,5.5,5.5,0,0,0,0-3.6l-.9-1-1.4-.5H43.2v6.8Z"/>
      <path d="M66.5,180.8l8.2,22.9h-5l-1.6-5.1H59.9l-1.7,5.1H53.4l8.2-22.9Zm.3,14-2.7-8.4H64l-2.8,8.4Z"/>
      <path d="M86.4,180.8a8.6,8.6,0,0,1,3.4.6,7.2,7.2,0,0,1,2.4,1.6,7,7,0,0,1,1.3,2.4,9.3,9.3,0,0,1,0,5.4,7,7,0,0,1-1.3,2.4,6,6,0,0,1-2.4,1.6,8.6,8.6,0,0,1-3.4.7h-5v8.2H76.6V180.8Zm-1.3,10.7h1.6a2.9,2.9,0,0,0,1.3-.5,2.2,2.2,0,0,0,.9-1,4.3,4.3,0,0,0,0-3.6,2.8,2.8,0,0,0-.9-1l-1.3-.5H81.4v6.8Z"/>
      <path d="M111.9,180.8V185H100.4v4.9H111v3.9H100.4v5.6h11.8v4.3H95.7V180.8Z"/>
      <path d="M126.5,180.8a5.9,5.9,0,0,1,2.7.5,5.7,5.7,0,0,1,3.3,3.3,10.1,10.1,0,0,1,.4,2.5,7.8,7.8,0,0,1-.8,3.5,5,5,0,0,1-2.7,2.2h0a3.6,3.6,0,0,1,1.5.8,4,4,0,0,1,1,1.2,7.5,7.5,0,0,1,.5,1.6,11.1,11.1,0,0,1,.2,1.7c0,.4.1.8.1,1.3a7.6,7.6,0,0,0,.1,1.5,7.7,7.7,0,0,0,.2,1.5,4.3,4.3,0,0,0,.5,1.2h-4.8a10.1,10.1,0,0,1-.4-2.6l-.3-2.9a4.9,4.9,0,0,0-1-2.6,3.4,3.4,0,0,0-2.6-.9h-4.8v9h-4.8V180.8Zm-1.7,10.3a2.8,2.8,0,0,0,3.3-3.2,3.4,3.4,0,0,0-.8-2.5,3.7,3.7,0,0,0-2.5-.7h-5.2v6.4Z"/>
      <path d="M142.6,197.8v5.9h-5.7v-5.9Z"/>
      <path d="M159.8,186.9a4.5,4.5,0,0,0-1.1-1.3,3.9,3.9,0,0,0-1.4-.8,5.1,5.1,0,0,0-1.7-.3,6.1,6.1,0,0,0-2.8.6,6.2,6.2,0,0,0-1.8,1.8,9.3,9.3,0,0,0-1,2.5,13.6,13.6,0,0,0-.3,2.9,12.7,12.7,0,0,0,.3,2.8,10.9,10.9,0,0,0,1,2.5,5.8,5.8,0,0,0,1.8,1.7,5.1,5.1,0,0,0,2.8.7,4.3,4.3,0,0,0,3.4-1.4,7.3,7.3,0,0,0,1.5-3.8h4.7a13.9,13.9,0,0,1-1,3.9,9.3,9.3,0,0,1-2,3,7.9,7.9,0,0,1-2.9,1.8,9,9,0,0,1-3.7.7,10.6,10.6,0,0,1-4.5-.9,9.7,9.7,0,0,1-3.4-2.6,11.2,11.2,0,0,1-2.1-3.7,14.5,14.5,0,0,1-.7-4.7,14.1,14.1,0,0,1,.7-4.7,12.2,12.2,0,0,1,2.1-3.9,10.7,10.7,0,0,1,7.9-3.5,9.7,9.7,0,0,1,3.4.6,7.1,7.1,0,0,1,2.8,1.6,7.2,7.2,0,0,1,2.1,2.5,10.1,10.1,0,0,1,1.1,3.6h-4.7A3,3,0,0,0,159.8,186.9Z"/>
      <path d="M172,180.8v8.8h8.8v-8.8h4.8v22.9h-4.8v-9.9H172v9.9h-4.8V180.8Z"/>
      <path d="M200,180.8l8.1,22.9h-4.9l-1.7-5.1h-8.1l-1.7,5.1h-4.8l8.2-22.9Zm.3,14-2.8-8.4h0l-2.9,8.4Z"/>
      <path d="M214.2,180.8v18.6h10.6v4.3H209.4V180.8Z"/>
      <path d="M232.3,180.8v18.6h10.6v4.3H227.5V180.8Z"/>
      <path d="M261.8,180.8V185H250.3v4.9h10.6v3.9H250.3v5.6h11.8v4.3H245.5V180.8Z"/>
      <path d="M269.4,180.8l9.1,15.3h.1V180.8H283v22.9h-4.7l-9.1-15.4h0v15.4h-4.5V180.8Z"/>
      <path d="M298.9,203.5a8.7,8.7,0,0,1-3.1.7,10.6,10.6,0,0,1-4.5-.9,9.7,9.7,0,0,1-3.4-2.6,11.2,11.2,0,0,1-2.1-3.7,14.5,14.5,0,0,1-.7-4.7,14.1,14.1,0,0,1,.7-4.7,12.2,12.2,0,0,1,2.1-3.9,10.7,10.7,0,0,1,7.9-3.5,8.7,8.7,0,0,1,3.2.6,8,8,0,0,1,2.9,1.5,8.2,8.2,0,0,1,2,2.5,7.9,7.9,0,0,1,1,3.5h-4.5a5.2,5.2,0,0,0-1.7-2.9,4.8,4.8,0,0,0-2.9-.9,6.1,6.1,0,0,0-2.8.6,6.2,6.2,0,0,0-1.8,1.8,6.9,6.9,0,0,0-1,2.5,13.6,13.6,0,0,0-.3,2.9,12.7,12.7,0,0,0,.3,2.8,7.7,7.7,0,0,0,1,2.5,5.8,5.8,0,0,0,1.8,1.7,5.1,5.1,0,0,0,2.8.7,4.5,4.5,0,0,0,3.6-1.3A5.8,5.8,0,0,0,301,195h-4.9v-3.7h9.2v12.4h-3.1l-.5-2.6A7.8,7.8,0,0,1,298.9,203.5Z"/>
      <path d="M324.4,180.8V185H312.9v4.9h10.6v3.9H312.9v5.6h11.8v4.3H308.2V180.8Z"/>
    </g>
  </g>
</svg>
